<svg width="265" height="105" viewBox="0 0 265 105" fill="none" xmlns="http://www.w3.org/2000/svg">
<path d="M68.16 104.64C65.44 104.64 62.76 103.84 60.12 102.24C57.48 100.72 54.92 98.72 52.44 96.24C49.96 93.68 47.6 90.96 45.36 88.08C43.12 85.2 41 82.4 39 79.68C37.08 76.96 35.32 74.68 33.72 72.84C33.16 72.6 32.4 72.32 31.44 72C30.48 71.6 29.8 71.2 29.4 70.8C28.68 70.32 27.88 69.56 27 68.52C26.2 67.4 25.8 66.4 25.8 65.52C25.8 64.64 26.24 64.08 27.12 63.84C28 63.52 28.76 63.36 29.4 63.36C30.92 63.36 32.28 63.84 33.48 64.8C34.76 65.68 35.76 66.68 36.48 67.8C38.4 67.32 40.8 66.44 43.68 65.16C46.56 63.8 49.56 62.16 52.68 60.24C55.88 58.32 58.84 56.24 61.56 54C64.28 51.68 66.48 49.36 68.16 47.04C69.92 44.64 70.8 42.32 70.8 40.08C70.8 37.28 70 34.88 68.4 32.88C66.88 30.88 64.88 29.24 62.4 27.96C59.92 26.6 57.2 25.56 54.24 24.84C51.36 24.12 48.52 23.64 45.72 23.4C42.92 23.08 40.48 22.92 38.4 22.92C36.24 22.92 33.4 23.2 29.88 23.76C26.44 24.24 22.84 25 19.08 26.04C15.32 27 11.92 28.24 8.88 29.76C5.92 31.28 3.84 33.04 2.64 35.04C2.56 35.28 2.44 35.56 2.28 35.88C2.04 36.12 1.72 36.24 1.32 36.24C1.08 36.24 0.92 36.12 0.84 35.88C0.68 35.64 0.6 35.44 0.6 35.28C0.6 35.12 0.64 34.92 0.72 34.68C0.8 34.44 0.88 34.24 0.96 34.08C1.84 32.24 3.4 30.56 5.64 29.04C7.8 27.52 10.32 26.16 13.2 24.96C16.16 23.76 19.2 22.72 22.32 21.84C25.44 20.96 28.36 20.32 31.08 19.92C33.88 19.44 36.2 19.2 38.04 19.2C40.52 19.2 43.32 19.44 46.44 19.92C49.64 20.32 52.88 21 56.16 21.96C59.44 22.92 62.44 24.24 65.16 25.92C67.96 27.52 70.2 29.52 71.88 31.92C73.56 34.24 74.4 37.04 74.4 40.32C74.4 43.28 73.52 46.12 71.76 48.84C70 51.48 67.72 53.92 64.92 56.16C62.12 58.4 59.04 60.44 55.68 62.28C52.4 64.04 49.16 65.52 45.96 66.72C42.76 67.92 39.92 68.8 37.44 69.36C38.56 71.2 39.96 73.48 41.64 76.2C43.32 78.84 45.16 81.6 47.16 84.48C49.16 87.36 51.28 90.08 53.52 92.64C55.84 95.12 58.2 97.16 60.6 98.76C63 100.28 65.4 101.04 67.8 101.04C70.04 101.04 71.84 100.64 73.2 99.84C74.64 99.04 75.76 98.24 76.56 97.44C77.36 96.64 77.84 96.24 78 96.24C78.64 96.24 78.96 96.56 78.96 97.2C78.96 98.32 78.24 99.48 76.8 100.68C75.44 101.8 73.92 102.72 72.24 103.44C70.56 104.24 69.2 104.64 68.16 104.64ZM24.84 103.32C21.64 103.32 19.28 102.48 17.76 100.8C16.24 99.12 15.28 97.04 14.88 94.56C14.48 92 14.28 89.44 14.28 86.88C14.28 78.16 15.84 69.88 18.96 62.04C22.16 54.2 25.84 46.6 30 39.24C30.16 38.92 30.24 38.64 30.24 38.4C30.24 38 30.2 37.76 30.12 37.68C30.12 37.6 30.08 37.56 30 37.56C29.36 37.56 29.2 37.28 29.52 36.72C29.92 36.16 30.52 35.52 31.32 34.8C32.12 34 32.92 33.32 33.72 32.76C34.52 32.2 35.08 31.92 35.4 31.92C36.04 31.92 36.68 32.16 37.32 32.64C37.96 33.04 38.28 33.6 38.28 34.32C38.28 34.64 37.6 35.88 36.24 38.04C34.88 40.2 33.16 43.04 31.08 46.56C29.08 50.08 27.04 54.08 24.96 58.56C22.96 62.96 21.28 67.64 19.92 72.6C18.56 77.48 17.88 82.36 17.88 87.24C17.88 88.52 18 90.2 18.24 92.28C18.56 94.36 19.12 96.28 19.92 98.04C20.72 99.72 21.96 100.72 23.64 101.04C24.04 101.12 24.64 101.28 25.44 101.52C26.24 101.76 26.68 102.16 26.76 102.72C26.6 103.04 26.32 103.2 25.92 103.2C25.52 103.28 25.16 103.32 24.84 103.32ZM77.9128 99.24C76.6328 99.24 75.5928 98.72 74.7928 97.68C74.0728 96.64 73.5128 95.36 73.1128 93.84C72.7128 92.24 72.4328 90.72 72.2728 89.28C72.1928 87.76 72.1528 86.56 72.1528 85.68C72.1528 84.88 72.1528 84.08 72.1528 83.28C72.2328 82.48 72.3128 81.68 72.3928 80.88C72.7128 78.4 73.1528 75.96 73.7128 73.56C74.2728 71.08 74.7128 68.6 75.0328 66.12C75.1928 64.84 75.3128 63.6 75.3928 62.4C75.4728 61.2 75.5528 59.96 75.6328 58.68C75.7128 58.28 75.8328 57.92 75.9928 57.6C76.1528 57.2 76.4728 57 76.9528 57C77.8328 57 78.3528 57.4 78.5128 58.2C78.7528 58.92 78.8728 59.6 78.8728 60.24C78.8728 63.12 78.5928 65.96 78.0328 68.76C77.4728 71.56 76.9128 74.36 76.3528 77.16C75.7928 79.96 75.5128 82.8 75.5128 85.68C75.5128 86 75.5128 86.72 75.5128 87.84C75.5928 88.88 75.7128 90.04 75.8728 91.32C76.0328 92.52 76.2728 93.56 76.5928 94.44C76.9928 95.32 77.4728 95.76 78.0328 95.76C78.7528 95.76 79.6728 94.92 80.7928 93.24C81.9928 91.56 83.1928 89.56 84.3928 87.24C85.6728 84.84 86.7928 82.64 87.7528 80.64C88.7928 78.56 89.4728 77.16 89.7928 76.44C90.9128 73.96 91.6328 71.68 91.9528 69.6C92.3528 67.52 92.6328 65.6 92.7928 63.84C92.9528 62 93.3528 60.2 93.9928 58.44C94.3928 57.48 94.9928 57 95.7928 57C96.9928 57 97.5928 57.72 97.5928 59.16C97.5928 61.64 97.3128 64.64 96.7528 68.16C96.1928 71.6 95.9128 75 95.9128 78.36V81C95.9128 81.56 95.9128 82.44 95.9128 83.64C95.9128 84.76 95.9928 85.96 96.1528 87.24C96.3928 88.52 96.7128 89.6 97.1128 90.48C97.5928 91.36 98.2728 91.8 99.1528 91.8C100.193 91.8 101.233 91.2 102.273 90C103.313 88.8 104.273 87.4 105.153 85.8C106.113 84.2 106.913 82.8 107.553 81.6C108.193 80.4 108.673 79.8 108.993 79.8C109.473 79.8 109.713 80.12 109.713 80.76C109.713 81.48 109.313 82.64 108.513 84.24C107.793 85.76 106.833 87.36 105.633 89.04C104.513 90.72 103.313 92.16 102.033 93.36C100.833 94.56 99.7928 95.16 98.9128 95.16C97.0728 95.16 95.6728 94.4 94.7128 92.88C93.8328 91.36 93.1928 89.48 92.7928 87.24C92.4728 85 92.3128 82.84 92.3128 80.76C92.3128 78.6 92.3128 76.92 92.3128 75.72C91.9928 76.68 91.4728 78.12 90.7528 80.04C90.0328 81.88 89.1928 83.92 88.2328 86.16C87.2728 88.32 86.2328 90.4 85.1128 92.4C83.9928 94.4 82.7928 96.04 81.5128 97.32C80.3128 98.6 79.1128 99.24 77.9128 99.24ZM121.581 99.96C119.821 99.96 118.421 99.36 117.381 98.16C116.341 96.88 115.541 95.32 114.981 93.48C114.501 91.56 114.181 89.68 114.021 87.84C113.861 85.92 113.781 84.36 113.781 83.16C113.781 78.84 113.941 74.48 114.261 70.08C114.661 65.68 115.061 61.32 115.461 57C114.101 57.56 112.781 58.2 111.501 58.92C110.301 59.64 109.181 60.56 108.141 61.68C107.981 61.84 107.781 62 107.541 62.16C107.381 62.32 107.141 62.4 106.821 62.4C106.261 62.4 105.701 62.12 105.141 61.56C104.661 61 104.421 60.44 104.421 59.88C104.421 59.16 104.901 58.44 105.861 57.72C106.821 56.92 107.981 56.2 109.341 55.56C110.781 54.84 112.101 54.24 113.301 53.76C114.581 53.28 115.461 52.96 115.941 52.8C116.021 52.16 116.181 50.96 116.421 49.2C116.741 47.36 117.101 45.32 117.501 43.08C117.901 40.76 118.341 38.56 118.821 36.48C119.381 34.32 119.941 32.56 120.501 31.2C121.061 29.76 121.621 29.04 122.181 29.04C122.741 29.04 123.301 29.24 123.861 29.64C124.421 30.04 124.701 30.52 124.701 31.08C124.701 31.32 124.501 32.32 124.101 34.08C123.701 35.84 123.181 37.92 122.541 40.32C121.981 42.64 121.461 44.84 120.981 46.92C120.581 49 120.301 50.44 120.141 51.24C123.661 50.2 127.021 49.36 130.221 48.72C133.501 48.08 136.941 47.76 140.541 47.76C140.861 47.76 141.461 47.76 142.341 47.76C143.221 47.76 144.061 47.8 144.861 47.88C145.741 47.96 146.181 48.12 146.181 48.36C145.381 48.68 144.501 48.92 143.541 49.08C142.661 49.24 141.781 49.36 140.901 49.44C137.061 49.76 133.421 50.48 129.981 51.6C126.621 52.72 123.181 53.96 119.661 55.32C119.101 59.88 118.621 64.52 118.221 69.24C117.821 73.88 117.621 78.48 117.621 83.04C117.621 83.92 117.661 85.12 117.741 86.64C117.821 88.08 117.981 89.56 118.221 91.08C118.461 92.52 118.861 93.76 119.421 94.8C119.981 95.84 120.781 96.36 121.821 96.36C123.181 96.36 124.581 95.6 126.021 94.08C127.461 92.48 128.901 90.56 130.341 88.32C131.781 86 133.101 83.68 134.301 81.36C135.501 79.04 136.541 77.08 137.421 75.48C138.381 73.88 139.021 73.04 139.341 72.96V73.32C139.341 74.52 138.941 76.2 138.141 78.36C137.341 80.52 136.261 82.84 134.901 85.32C133.621 87.72 132.181 90.04 130.581 92.28C129.061 94.52 127.501 96.36 125.901 97.8C124.381 99.24 122.941 99.96 121.581 99.96ZM157.137 99.84C155.537 99.84 154.217 99.04 153.177 97.44C152.137 95.84 151.337 94.04 150.777 92.04C150.217 90.04 149.817 88.44 149.577 87.24C149.257 87.96 148.777 89 148.137 90.36C147.577 91.64 146.897 93 146.097 94.44C145.297 95.88 144.457 97.08 143.577 98.04C142.697 99 141.817 99.48 140.937 99.48C139.737 99.48 138.777 98.88 138.057 97.68C137.417 96.48 136.937 95.16 136.617 93.72C136.377 92.2 136.257 91 136.257 90.12C136.257 89.48 136.337 88.2 136.497 86.28C136.657 84.36 136.897 82.16 137.217 79.68C137.537 77.2 137.897 74.8 138.297 72.48C138.777 70.08 139.297 68.12 139.857 66.6C140.497 65 141.177 64.2 141.897 64.2C142.617 64.2 142.977 64.6 142.977 65.4C142.977 65.88 142.937 66.2 142.857 66.36C141.977 70.28 141.177 74.16 140.457 78C139.737 81.76 139.377 85.68 139.377 89.76C139.377 90.16 139.377 90.76 139.377 91.56C139.457 92.36 139.617 93.08 139.857 93.72C140.177 94.36 140.657 94.68 141.297 94.68C141.777 94.68 142.417 94.16 143.217 93.12C144.017 92 144.817 90.72 145.617 89.28C146.417 87.76 147.097 86.32 147.657 84.96C148.297 83.6 148.737 82.68 148.977 82.2C148.897 81.8 148.857 81.4 148.857 81C148.857 80.6 148.857 80.2 148.857 79.8C148.857 79 148.857 77.72 148.857 75.96C148.937 74.2 149.097 72.36 149.337 70.44C149.657 68.44 150.137 66.76 150.777 65.4C151.417 63.96 152.297 63.24 153.417 63.24C154.377 63.24 155.017 63.64 155.337 64.44C155.657 65.24 155.817 66.04 155.817 66.84C155.817 68.12 155.577 69.68 155.097 71.52C154.697 73.28 154.177 75.04 153.537 76.8C152.977 78.56 152.457 80.04 151.977 81.24C151.977 81.88 152.057 83 152.217 84.6C152.457 86.2 152.777 87.92 153.177 89.76C153.577 91.52 154.097 93.04 154.737 94.32C155.377 95.6 156.137 96.24 157.017 96.24C157.737 96.24 158.537 95.76 159.417 94.8C160.297 93.84 161.137 92.76 161.937 91.56C162.737 90.36 163.297 89.48 163.617 88.92C167.217 82.12 169.017 74.96 169.017 67.44C169.017 66.4 168.817 65.08 168.417 63.48C168.097 61.8 167.577 60.24 166.857 58.8C166.217 57.28 165.337 56.32 164.217 55.92C163.897 55.76 163.537 55.6 163.137 55.44C162.737 55.2 162.537 54.8 162.537 54.24C162.537 54.08 162.617 53.88 162.777 53.64C162.937 53.4 163.137 53.28 163.377 53.28C164.737 53.28 165.937 53.8 166.977 54.84C168.097 55.88 169.057 57.2 169.857 58.8C170.657 60.4 171.257 62 171.657 63.6C172.057 65.12 172.257 66.44 172.257 67.56C172.257 71.64 171.737 75.68 170.697 79.68C169.657 83.6 168.177 87.36 166.257 90.96C165.857 91.68 165.097 92.76 163.977 94.2C162.857 95.64 161.657 96.96 160.377 98.16C159.177 99.28 158.097 99.84 157.137 99.84ZM186.469 54.84C185.909 54.84 185.389 54.72 184.909 54.48C184.429 54.16 184.189 53.72 184.189 53.16C184.189 52.52 184.469 51.56 185.029 50.28C185.589 48.92 186.309 47.56 187.189 46.2C188.069 44.84 188.989 43.68 189.949 42.72C190.989 41.76 191.909 41.28 192.709 41.28C193.349 41.28 193.669 41.68 193.669 42.48C193.669 43.44 193.149 44.2 192.109 44.76C191.469 45.16 190.909 45.92 190.429 47.04C190.029 48.16 189.669 49.32 189.349 50.52C189.109 51.72 188.869 52.68 188.629 53.4C188.389 54.36 187.669 54.84 186.469 54.84ZM184.069 100.8C182.229 100.8 180.869 100.04 179.989 98.52C179.109 96.92 178.549 95.12 178.309 93.12C178.069 91.04 177.949 89.36 177.949 88.08C177.949 87.28 178.029 85.8 178.189 83.64C178.429 81.48 178.709 79.08 179.029 76.44C179.429 73.72 179.869 71.08 180.349 68.52C180.909 65.96 181.549 63.84 182.269 62.16C182.989 60.48 183.749 59.64 184.549 59.64C185.189 59.64 185.749 59.84 186.229 60.24C186.709 60.64 186.949 61.16 186.949 61.8C186.949 62.76 186.669 64.28 186.109 66.36C185.549 68.44 184.869 70.8 184.069 73.44C183.349 76.08 182.669 78.76 182.029 81.48C181.469 84.12 181.189 86.52 181.189 88.68C181.189 89.24 181.229 90.2 181.309 91.56C181.469 92.92 181.749 94.2 182.149 95.4C182.549 96.52 183.189 97.08 184.069 97.08C185.269 97.08 186.589 96.2 188.029 94.44C189.469 92.68 190.909 90.52 192.349 87.96C193.869 85.32 195.269 82.72 196.549 80.16C197.829 77.52 198.909 75.32 199.789 73.56C200.669 71.8 201.269 70.92 201.589 70.92C201.989 70.92 202.229 71.08 202.309 71.4C202.469 71.64 202.549 71.92 202.549 72.24C202.549 73.28 202.109 74.96 201.229 77.28C200.349 79.52 199.189 82 197.749 84.72C196.309 87.36 194.749 89.92 193.069 92.4C191.389 94.8 189.749 96.8 188.149 98.4C186.549 100 185.189 100.8 184.069 100.8ZM206.275 104.4C205.475 104.4 204.835 103.76 204.355 102.48C203.875 101.28 203.515 99.8 203.275 98.04C203.035 96.28 202.875 94.56 202.795 92.88C202.795 91.2 202.795 89.92 202.795 89.04C202.795 85.84 202.915 82.12 203.155 77.88C203.475 73.64 203.875 69.16 204.355 64.44C204.915 59.72 205.595 55.04 206.395 50.4C207.195 45.76 208.115 41.44 209.155 37.44C210.195 33.44 211.355 30 212.635 27.12C213.195 25.76 214.155 25.08 215.515 25.08C216.075 25.08 216.555 25.24 216.955 25.56C217.355 25.88 217.555 26.36 217.555 27C217.555 27.16 217.515 27.4 217.435 27.72C217.355 27.96 217.275 28.16 217.195 28.32C215.275 33.68 213.395 39.08 211.555 44.52C209.715 49.88 208.435 55.4 207.715 61.08C207.235 64.84 206.755 68.68 206.275 72.6C205.875 76.52 205.675 80.4 205.675 84.24C205.675 85.28 205.715 86.32 205.795 87.36C205.875 88.32 206.035 89.32 206.275 90.36C206.675 87.16 207.355 84 208.315 80.88C209.355 77.76 210.275 74.68 211.075 71.64C210.275 70.6 209.875 69.28 209.875 67.68C209.875 66.88 210.115 65.92 210.595 64.8C211.075 63.6 211.875 63.28 212.995 63.84C213.235 63.2 213.635 62.08 214.195 60.48C214.835 58.88 215.595 57.12 216.475 55.2C217.355 53.2 218.275 51.28 219.235 49.44C220.195 47.6 221.155 46.08 222.115 44.88C223.155 43.68 224.075 43.08 224.875 43.08C226.235 43.08 227.195 43.56 227.755 44.52C228.315 45.48 228.675 46.64 228.835 48C228.995 49.28 229.075 50.4 229.075 51.36C229.075 52.88 228.875 55 228.475 57.72C228.155 60.36 227.555 63.12 226.675 66C225.875 68.8 224.755 71.2 223.315 73.2C221.955 75.12 220.195 76.08 218.035 76.08C217.475 76.08 217.035 76.04 216.715 75.96C216.875 77.08 217.035 78.72 217.195 80.88C217.435 83.04 217.795 85.28 218.275 87.6C218.835 89.92 219.595 91.88 220.555 93.48C221.515 95.08 222.755 95.88 224.275 95.88C225.715 95.88 226.955 95.36 227.995 94.32C229.115 93.2 230.035 91.84 230.755 90.24C231.555 88.64 232.235 87.04 232.795 85.44C233.435 83.84 233.995 82.52 234.475 81.48C234.955 80.36 235.435 79.8 235.915 79.8C236.235 79.8 236.435 80 236.515 80.4C236.595 80.72 236.635 80.96 236.635 81.12C236.635 82.4 236.275 84.08 235.555 86.16C234.835 88.16 233.875 90.2 232.675 92.28C231.555 94.28 230.235 96 228.715 97.44C227.275 98.8 225.795 99.48 224.275 99.48C221.875 99.48 219.955 98.6 218.515 96.84C217.155 95.08 216.115 92.88 215.395 90.24C214.675 87.6 214.155 85 213.835 82.44C213.515 79.8 213.235 77.64 212.995 75.96L212.635 76.08C211.595 80.48 210.515 84.88 209.395 89.28C208.355 93.6 207.835 98 207.835 102.48C207.835 102.96 207.715 103.4 207.475 103.8C207.235 104.2 206.835 104.4 206.275 104.4ZM217.915 72.48C219.515 72.48 220.795 71.64 221.755 69.96C222.715 68.28 223.435 66.24 223.915 63.84C224.395 61.36 224.715 59 224.875 56.76C225.035 54.52 225.115 52.8 225.115 51.6C225.115 51.36 225.075 50.68 224.995 49.56C224.915 48.36 224.675 47.76 224.275 47.76C223.555 47.76 222.715 48.6 221.755 50.28C220.795 51.96 219.835 53.96 218.875 56.28C217.995 58.52 217.195 60.64 216.475 62.64C215.755 64.56 215.275 65.84 215.035 66.48C215.435 67.44 215.715 68.44 215.875 69.48C216.035 70.44 216.195 71.4 216.355 72.36C216.595 72.44 216.835 72.48 217.075 72.48C217.395 72.48 217.675 72.48 217.915 72.48Z" fill="white"/>
</svg>
